<svg xmlns="http://www.w3.org/2000/svg" data-name="Layer 1" viewBox="0 0 100 125" x="0px" y="0px"><title>09</title><g data-name="Group"><path data-name="Compound Path" d="M50,21.17c-12.16-9.92-23.38-9.88-33.4.14a25.33,25.33,0,0,0,0,36l.1.1c15.55,14,23.35,21,27.25,24.49L47.4,85a4.26,4.26,0,0,0,2.15,1.19,3,3,0,0,0,.55.06A1.77,1.77,0,0,0,51,86l.34-.16,0,0a54.9,54.9,0,0,0,4.59-3.88c3.59-3.19,11.26-10,27.39-24.49l.11-.1a25.32,25.32,0,0,0,0-36C71.19,9.09,58.82,14,50,21.17Zm29.15,4.38h0A19.39,19.39,0,0,1,84.91,39.4,19.15,19.15,0,0,1,79.21,53C60.33,69.94,52.86,76.59,49.92,79.19,47,76.55,39.53,69.87,20.78,53a19.16,19.16,0,0,1-5.7-13.61,19.4,19.4,0,0,1,5.76-13.85c8.23-8.23,16.6-7.68,27.15,1.8a3,3,0,0,0,4,0C62.41,18,71,17.42,79.15,25.55Z"/></g><text x="0" y="115" fill="#000000" font-size="5px" font-weight="bold" font-family="'Helvetica Neue', Helvetica, Arial-Unicode, Arial, Sans-serif">Created by Logan</text><text x="0" y="120" fill="#000000" font-size="5px" font-weight="bold" font-family="'Helvetica Neue', Helvetica, Arial-Unicode, Arial, Sans-serif">from the Noun Project</text></svg>