<svg xmlns="http://www.w3.org/2000/svg" data-name="Layer 1" viewBox="0 0 100 125" x="0px" y="0px"><title>06</title><g data-name="Group"><path data-name="Compound Path" d="M87.65,12.24a3,3,0,0,0-3.24-.66L13.67,39.9a3,3,0,0,0-.29,5.44L40.33,59.57,54.56,86.51a3,3,0,0,0,2.65,1.6h.16A3,3,0,0,0,60,86.22L88.32,15.48A3,3,0,0,0,87.65,12.24ZM21.92,43.06,73.07,22.58,42,53.66ZM56.84,78,46.23,57.9,77.31,26.83Z"/><path data-name="Path" d="M33.31,62.34,14.36,81.29a3,3,0,1,0,4.24,4.24L37.55,66.59a3,3,0,0,0-4.24-4.24Z"/><path data-name="Path" d="M30.71,87.73a3,3,0,0,0,4.24,0l9.15-8.94a3,3,0,1,0-4.19-4.29l-9.15,8.94A3,3,0,0,0,30.71,87.73Z"/><path data-name="Path" d="M14.47,70.25a3,3,0,0,0,2.1-.85l9.15-8.94a3,3,0,0,0-4.19-4.29l-9.15,8.94a3,3,0,0,0,2.1,5.15Z"/></g><text x="0" y="115" fill="#000000" font-size="5px" font-weight="bold" font-family="'Helvetica Neue', Helvetica, Arial-Unicode, Arial, Sans-serif">Created by Logan</text><text x="0" y="120" fill="#000000" font-size="5px" font-weight="bold" font-family="'Helvetica Neue', Helvetica, Arial-Unicode, Arial, Sans-serif">from the Noun Project</text></svg>