<svg xmlns="http://www.w3.org/2000/svg" data-name="Layer 1" viewBox="0 0 100 125" x="0px" y="0px"><title>03</title><g data-name="Group"><path data-name="Path" d="M84.68,34.8a3,3,0,1,0-5.49,2.41A31.85,31.85,0,1,1,65.06,21.92a3,3,0,1,0,2.84-5.29A37.82,37.82,0,1,0,84.68,34.8Z"/><path data-name="Path" d="M33,38.93a3,3,0,1,0-4.15,4.34L46.5,60.1a3,3,0,0,0,2.07.83h.11a3,3,0,0,0,2.12-1L84.62,22.32a3,3,0,1,0-4.46-4L48.41,53.62Z"/></g><text x="0" y="115" fill="#000000" font-size="5px" font-weight="bold" font-family="'Helvetica Neue', Helvetica, Arial-Unicode, Arial, Sans-serif">Created by Logan</text><text x="0" y="120" fill="#000000" font-size="5px" font-weight="bold" font-family="'Helvetica Neue', Helvetica, Arial-Unicode, Arial, Sans-serif">from the Noun Project</text></svg>